# xmcd CD database file
#
# Track frame offsets:
#	150
#	19937
#	35610
#	55242
#	66680
#	78340
#	92527
#	105685
#	121857
#	134950
#	150745
#	162945
#	179807
#	191340
#
# Disc length: 2804 seconds
#
# Revision: 0
# Processed by: cddbd v1.5.1PL0 Copyright (c) Steve Scherf et al.
# Submitted via: CDex 1.51
#
DISCID=c70af20e
DTITLE=Various Artist - ALL JAPAN PRO.WRESTRING THEME MUSIC PERFECT COLLECTION
DYEAR=1900
DGENRE=Instrumental
TTITLE0=三沢光晴のテーマ「スパルタンX」
TTITLE1=小橋健太のテーマ「SNIPER」
TTITLE2=秋山準のテーマ「SHADOW　EXPLOSION」
TTITLE3=本田多聞のテーマ「NO　SURVIVORS」
TTITLE4=浅子覚のテーマ「VIBRATIONS」
TTITLE5=志賀賢太郎のテーマ「SOLID　SKY」
TTITLE6=馳浩のテーマ「TWO　HEARTS」
TTITLE7=渕正信のテーマ「デンジャー・ゾーン」
TTITLE8=マイティ井上のテーマ「スピード・トラップ」
TTITLE9=永源遥のテーマ「必殺仕事人」
TTITLE10=百田光雄のテーマ「ロッキーのテーマ」
TTITLE11=ラッシャー木村のテーマ「ﾘﾊﾞｰｽ・オブ・ザ・ヒート」
TTITLE12=ジャンボ鶴田のテーマ「J」
TTITLE13=ジャイアント馬場のテーマ「王者の魂」
EXTD=
EXTT0=
EXTT1=
EXTT2=
EXTT3=
EXTT4=
EXTT5=
EXTT6=
EXTT7=
EXTT8=
EXTT9=
EXTT10=
EXTT11=
EXTT12=
EXTT13=
PLAYORDER=
